/* XPM */
static const char * C_24_24_14_1_xpm[] = {
"24 24 14 1",
" 	c #FFFFFF",
"I	c #555555",
"G	c #000000",
"E	c #EEEEEE",
"B	c #999999",
"C	c #666666",
"H	c #444444",
"D	c #333333",
"J	c #DDDDDD",
"F	c #111111",
"M	c #AAAAAA",
"O	c #777777",
"L	c #888888",
"A	c #CCCCCC",
"                        ",
"                        ",
"         IGGGGGEB       ",
"       GGGGGGGGGGG      ",
"     GGGG I     CGGH    ",
"    GGGG        GGG     ",
"    GGG          GG     ",
"   DGGG                 ",
"   GGGB                 ",
"  JGGG                  ",
"  DGGG                  ",
"  FGGG                  ",
"  GGGG                  ",
"   IGGG                 ",
"  MGGG                  ",
"   GGGH            C    ",
"   HGGG            GG   ",
"    GGGEO          GGL  ",
"    GGGG         GGG    ",
"     GGGGGHBEA IGGGG    ",
"       IGGGGGGGGGGO     ",
"       FGGGGGGGG        ",
"                        ",
"                        "};
