/* XPM */
// Source before the convertion to XPM: CC BY-SA 3.0, https://commons.wikimedia.org/w/index.php?curid=40796
static char* C_64_64_16_2xpm[] = {
"64 64 16 2",
"  	g #FFFFFF",
"1.	g #CCCCCC",
"1+	g #999999",
"1@	g #666666",
"1#	g #333333",
"1$	g #222222",
"1%	g #111111",
"1&	g #000000",
"1*	g #444444",
"1=	g #555555",
"1-	g #DDDDDD",
"1;	g #BBBBBB",
"1>	g #888888",
"1,	g #AAAAAA",
"1'	g #EEEEEE",
"1)	g #777777",
"                                                                                                                                ",
"                                                                                                                                ",
"                                                                                                                                ",
"                                                                                                                                ",
"                                                                                                                                ",
"                                                                                                                                ",
"                                                  1.1+1@1#1$1%1&1&1%1$1*1=1+1-                                                  ",
"                                            1.1=1%1&1&1&1&1&1&1&1&1&1&1&1&1&1&1$1*1;                                            ",
"                                        1.1#1&1&1&1&1&1&1&1&1&1&1&1&1&1&1&1&1&1&1&1&1%1=1;  1.1&1#                              ",
"                                      1=1&1&1&1&1&1&1&1&1&1&1&1&1&1&1&1&1&1&1&1&1&1&1&1&1&1&1&1&1&                              ",
"                                  1;1&1&1&1&1&1&1&1&1&1&1&1&1&1&1&1&1&1&1&1&1&1&1&1&1&1&1&1&1&1&1&1-                            ",
"                                1>1&1&1&1&1&1&1&1&1&1&1&1&1&1&1&1&1&1&1&1&1&1&1&1&1&1&1&1&1&1&1&1&1,                            ",
"                              1@1&1&1&1&1&1&1&1&1&1&1&1$1@1,1.1'    1'1'1.1+1=1$1&1&1&1&1&1&1&1&1&1@                            ",
"                            1@1&1&1&1&1&1&1&1&1&1&1=1.                          1-1@1&1&1&1&1&1&1&1*                            ",
"                          1>1&1&1&1&1&1&1&1&1&1$1-                                  1'1=1&1&1&1&1&1%                            ",
"                        1;1&1&1&1&1&1&1&1&1&1@                                          1,1&1&1&1&1&1-                          ",
"                        1&1&1&1&1&1&1&1&1&1>                                              1.1&1&1&1&1,                          ",
"                      1#1&1&1&1&1&1&1&1&1@                                                  1,1&1&1&1>                          ",
"                    1;1&1&1&1&1&1&1&1&1$                                                      1@1&1&1=                          ",
"                    1$1&1&1&1&1&1&1&1&1.                                                        1%1&1$                          ",
"                  1,1&1&1&1&1&1&1&1&1)                                                          1+1#1,                          ",
"                  1#1&1&1&1&1&1&1&1&1-                                                                                          ",
"                1.1&1&1&1&1&1&1&1&1*                                                                                            ",
"                1)1&1&1&1&1&1&1&1&1;                                                                                            ",
"                1$1&1&1&1&1&1&1&1&                                                                                              ",
"              1-1&1&1&1&1&1&1&1&1#                                                                                              ",
"              1,1&1&1&1&1&1&1&1&1@                                                                                              ",
"              1@1&1&1&1&1&1&1&1&1,                                                                                              ",
"              1=1&1&1&1&1&1&1&1&1;                                                                                              ",
"              1#1&1&1&1&1&1&1&1&1.                                                                                              ",
"              1%1&1&1&1&1&1&1&1&1'                                                                                              ",
"              1%1&1&1&1&1&1&1&1&1'                                                                                              ",
"              1&1&1&1&1&1&1&1&1&                                                                                                ",
"              1&1&1&1&1&1&1&1&1&1'                                                                                              ",
"              1%1&1&1&1&1&1&1&1&1-                                                                                              ",
"              1$1&1&1&1&1&1&1&1&1.                                                                                              ",
"              1$1&1&1&1&1&1&1&1&1,                                                                                              ",
"              1=1&1&1&1&1&1&1&1&1)                                                                                              ",
"              1@1&1&1&1&1&1&1&1&1*                                                                                              ",
"              1,1&1&1&1&1&1&1&1&1&                                                                                              ",
"              1.1&1&1&1&1&1&1&1&1&1;                                                                                            ",
"                1&1&1&1&1&1&1&1&1&1*                                                                    1.1@                    ",
"                1*1&1&1&1&1&1&1&1&1&                                                                    1#1&1)                  ",
"                1,1&1&1&1&1&1&1&1&1&1>                                                                1+1&1&1&1>                ",
"                1'1&1&1&1&1&1&1&1&1&1&                                                              1-1&1&1&1&1&1+              ",
"                  1*1&1&1&1&1&1&1&1&1&1=                                                            1$1&1&1&1&1&1#              ",
"                  1.1&1&1&1&1&1&1&1&1&1&1;                                                        1=1&1&1&1&1&1&1-              ",
"                    1*1&1&1&1&1&1&1&1&1&1&1'                                                    1)1&1&1&1&1&1&1>                ",
"                    1-1&1&1&1&1&1&1&1&1&1&1&                                                  1)1&1&1&1&1&1&1#                  ",
"                      1>1&1&1&1&1&1&1&1&1&1&1%                                              1@1&1&1&1&1&1&1&                    ",
"                        1#1&1&1&1&1&1&1&1&1&1&1&1.                                      1'1#1&1&1&1&1&1&1&1'                    ",
"                          1&1&1&1&1&1&1&1&1&1&1&1&1)                                  1+1&1&1&1&1&1&1&1&1;                      ",
"                          1'1&1&1&1&1&1&1&1&1&1&1&1&1&1>1'                        1+1$1&1&1&1&1&1&1&1&1.                        ",
"                            1-1&1&1&1&1&1&1&1&1&1&1&1&1&1&1*1>1;1-1'  1'1-1.1+1=1&1&1&1&1&1&1&1&1&1&1-                          ",
"                              1'1%1&1&1&1&1&1&1&1&1&1&1&1&1&1&1&1&1&1&1&1&1&1&1&1&1&1&1&1&1&1&1&1$1'                            ",
"                                  1=1&1&1&1&1&1&1&1&1&1&1&1&1&1&1&1&1&1&1&1&1&1&1&1&1&1&1&1&1&1)                                ",
"                                    1;1%1&1&1&1&1&1&1&1&1&1&1&1&1&1&1&1&1&1&1&1&1&1&1&1&1&1*1.                                  ",
"                                        1+1%1&1&1&1&1&1&1&1&1&1&1&1&1&1&1&1&1&1&1&1&1&1#1;                                      ",
"                                            1;1*1%1&1&1&1&1&1&1&1&1&1&1&1&1&1&1&1$1>1-                                          ",
"                                                  1.1,1@1*1$1%1%1&1%1$1#1=1)1,1-                                                ",
"                                                                                                                                ",
"                                                                                                                                ",
"                                                                                                                                ",
"                                                                                                                                "};
