/* XPM */
static const char * H_24_24_8_1_xpm[] = {
"24 24 8 1",
" 	c #FFFFFF",
"G	c #000000",
"A	c #CCCCCC",
"P	c #D5D5D5",
"U	c #D7D7D7",
"V	c #CACACA",
"b	c #5D5D5D",
"Q	c #535353",
"                        ",
" GGGGGG         GGGGGG  ",
" GGGGGA         PGGGGG  ",
" UGGGV           UGGGV  ",
"  GGG             GGG   ",
"  GGG             GGG   ",
"  GGG             GGG   ",
"  GGG             GGG   ",
"  GGG             GGG   ",
"  GGGGGGGGGGGGGGGGGGG   ",
"  GGGGGGGGGGGGGGGGGGG   ",
"  GGG             GGG   ",
"  GGG             GGG   ",
"  GGG             GGG   ",
"  GGG             GGG   ",
"  GGG             GGG   ",
"  GGG             GGG   ",
"  GGG             GGG   ",
"  GGG             GGG   ",
" bGGGQ           bGGGQ  ",
" GGGGGG         GGGGGG  ",
"                        ",
"                        ",
"                        "};
