/* XPM */
static char * H_32_32_10_1_xpm[] = {
"32 32 10 1",
" 	c #FFFFFF",
"G	c #000000",
"P	c #D5D5D5",
"A	c #CCCCCC",
"U	c #D7D7D7",
"V	c #CACACA",
"Y	c #EFEFEF",
"X	c #EBEBEB",
"b	c #5D5D5D",
"Q	c #535353",
"                                ",
"                                ",
" GGGGGGGG             GGGGGGGG  ",
" PGGGGGGA             PGGGGGGA  ",
"  UGGGGV               UGGGGV   ",
"   GGGG                 GGGG    ",
"   GGGG                 GGGG    ",
"   GGGG                 GGGG    ",
"   GGGG                 GGGG    ",
"   GGGG                 GGGG    ",
"   GGGG                 GGGG    ",
"   GGGG                 GGGG    ",
"   GGGGGGGGGGGGGGGGGGGGGGGGG    ",
"   GGGGGGGGGGGGGGGGGGGGGGGGG    ",
"   GGGGGGGGGGGGGGGGGGGGGGGGG    ",
"   GGGG                 GGGG    ",
"   GGGG                 GGGG    ",
"   GGGG                 GGGG    ",
"   GGGG                 GGGG    ",
"   GGGG                 GGGG    ",
"   GGGG                 GGGG    ",
"   GGGG                 GGGG    ",
"   GGGG                 GGGG    ",
"   GGGG                 GGGG    ",
"   GGGG                 GGGG    ",
"  YGGGGX               YGGGGX   ",
"  bGGGGQ               bGGGGQ   ",
" GGGGGGGG             GGGGGGGG  ",
"                                ",
"                                ",
"                                ",
"                                "};
