/* XPM */
// Source before the convertion to XPM: Von nd - Eigenes Werk (rendered using: Corel PhotoPaint, Bitstreat-Font Della Robbia), CC BY-SA 3.0, https://commons.wikimedia.org/w/index.php?curid=40802
static const char* H_64_64_19_2xpm[] = {
"64 64 19 2",
"  	g #FFFFFF",
"2.	g #000000",
"2+	g #D5D5D5",
"2@	g #535353",
"2#	g #434343",
"2$	g #CCCCCC",
"2%	g #5F5F5F",
"2&	g #4F4F4F",
"2*	g #D7D7D7",
"2=	g #CACACA",
"2-	g #F3F3F3",
"2;	g #EBEBEB",
"2>	g #EFEFEF",
"2,	g #DBDBDB",
"2'	g #D2D2D2",
"2)	g #5D5D5D",
"2!	g #4D4D4D",
"2~	g #494949",
"2{	g #C8C8C8",
"                                                                                                                                ",
"                                                                                                                                ",
"                                                                                                                                ",
"                                                                                                                                ",
"                                                                                                                                ",
"      2.2.2.2.2.2.2.2.2.2.2.2.2.2.2.                                                      2.2.2.2.2.2.2.2.2.2.2.2.2.2.2.        ",
"      2.2.2.2.2.2.2.2.2.2.2.2.2.2.2.                                                      2.2.2.2.2.2.2.2.2.2.2.2.2.2.2.        ",
"      2+2@2.2.2.2.2.2.2.2.2.2.2.2#2$                                                      2+2@2.2.2.2.2.2.2.2.2.2.2.2#2$        ",
"          2%2.2.2.2.2.2.2.2.2.2&                                                              2%2.2.2.2.2.2.2.2.2.2&            ",
"          2*2.2.2.2.2.2.2.2.2.2=                                                              2*2.2.2.2.2.2.2.2.2.2=            ",
"          2-2.2.2.2.2.2.2.2.2.2;                                                              2-2.2.2.2.2.2.2.2.2.2;            ",
"            2.2.2.2.2.2.2.2.2.                                                                  2.2.2.2.2.2.2.2.2.              ",
"            2.2.2.2.2.2.2.2.2.                                                                  2.2.2.2.2.2.2.2.2.              ",
"            2.2.2.2.2.2.2.2.2.                                                                  2.2.2.2.2.2.2.2.2.              ",
"            2.2.2.2.2.2.2.2.2.                                                                  2.2.2.2.2.2.2.2.2.              ",
"            2.2.2.2.2.2.2.2.2.                                                                  2.2.2.2.2.2.2.2.2.              ",
"            2.2.2.2.2.2.2.2.2.                                                                  2.2.2.2.2.2.2.2.2.              ",
"            2.2.2.2.2.2.2.2.2.                                                                  2.2.2.2.2.2.2.2.2.              ",
"            2.2.2.2.2.2.2.2.2.                                                                  2.2.2.2.2.2.2.2.2.              ",
"            2.2.2.2.2.2.2.2.2.                                                                  2.2.2.2.2.2.2.2.2.              ",
"            2.2.2.2.2.2.2.2.2.                                                                  2.2.2.2.2.2.2.2.2.              ",
"            2.2.2.2.2.2.2.2.2.                                                                  2.2.2.2.2.2.2.2.2.              ",
"            2.2.2.2.2.2.2.2.2.                                                                  2.2.2.2.2.2.2.2.2.              ",
"            2.2.2.2.2.2.2.2.2.                                                                  2.2.2.2.2.2.2.2.2.              ",
"            2.2.2.2.2.2.2.2.2.                                                                  2.2.2.2.2.2.2.2.2.              ",
"            2.2.2.2.2.2.2.2.2.2.2.2.2.2.2.2.2.2.2.2.2.2.2.2.2.2.2.2.2.2.2.2.2.2.2.2.2.2.2.2.2.2.2.2.2.2.2.2.2.2.2.              ",
"            2.2.2.2.2.2.2.2.2.2.2.2.2.2.2.2.2.2.2.2.2.2.2.2.2.2.2.2.2.2.2.2.2.2.2.2.2.2.2.2.2.2.2.2.2.2.2.2.2.2.2.              ",
"            2.2.2.2.2.2.2.2.2.2.2.2.2.2.2.2.2.2.2.2.2.2.2.2.2.2.2.2.2.2.2.2.2.2.2.2.2.2.2.2.2.2.2.2.2.2.2.2.2.2.2.              ",
"            2.2.2.2.2.2.2.2.2.2.2.2.2.2.2.2.2.2.2.2.2.2.2.2.2.2.2.2.2.2.2.2.2.2.2.2.2.2.2.2.2.2.2.2.2.2.2.2.2.2.2.              ",
"            2.2.2.2.2.2.2.2.2.2.2.2.2.2.2.2.2.2.2.2.2.2.2.2.2.2.2.2.2.2.2.2.2.2.2.2.2.2.2.2.2.2.2.2.2.2.2.2.2.2.2.              ",
"            2.2.2.2.2.2.2.2.2.2.2.2.2.2.2.2.2.2.2.2.2.2.2.2.2.2.2.2.2.2.2.2.2.2.2.2.2.2.2.2.2.2.2.2.2.2.2.2.2.2.2.              ",
"            2.2.2.2.2.2.2.2.2.                                                                  2.2.2.2.2.2.2.2.2.              ",
"            2.2.2.2.2.2.2.2.2.                                                                  2.2.2.2.2.2.2.2.2.              ",
"            2.2.2.2.2.2.2.2.2.                                                                  2.2.2.2.2.2.2.2.2.              ",
"            2.2.2.2.2.2.2.2.2.                                                                  2.2.2.2.2.2.2.2.2.              ",
"            2.2.2.2.2.2.2.2.2.                                                                  2.2.2.2.2.2.2.2.2.              ",
"            2.2.2.2.2.2.2.2.2.                                                                  2.2.2.2.2.2.2.2.2.              ",
"            2.2.2.2.2.2.2.2.2.                                                                  2.2.2.2.2.2.2.2.2.              ",
"            2.2.2.2.2.2.2.2.2.                                                                  2.2.2.2.2.2.2.2.2.              ",
"            2.2.2.2.2.2.2.2.2.                                                                  2.2.2.2.2.2.2.2.2.              ",
"            2.2.2.2.2.2.2.2.2.                                                                  2.2.2.2.2.2.2.2.2.              ",
"            2.2.2.2.2.2.2.2.2.                                                                  2.2.2.2.2.2.2.2.2.              ",
"            2.2.2.2.2.2.2.2.2.                                                                  2.2.2.2.2.2.2.2.2.              ",
"            2.2.2.2.2.2.2.2.2.                                                                  2.2.2.2.2.2.2.2.2.              ",
"            2.2.2.2.2.2.2.2.2.                                                                  2.2.2.2.2.2.2.2.2.              ",
"            2.2.2.2.2.2.2.2.2.                                                                  2.2.2.2.2.2.2.2.2.              ",
"            2.2.2.2.2.2.2.2.2.                                                                  2.2.2.2.2.2.2.2.2.              ",
"            2.2.2.2.2.2.2.2.2.                                                                  2.2.2.2.2.2.2.2.2.              ",
"            2.2.2.2.2.2.2.2.2.                                                                  2.2.2.2.2.2.2.2.2.              ",
"            2.2.2.2.2.2.2.2.2.                                                                  2.2.2.2.2.2.2.2.2.              ",
"            2.2.2.2.2.2.2.2.2.                                                                  2.2.2.2.2.2.2.2.2.              ",
"          2>2.2.2.2.2.2.2.2.2.2;                                                              2>2.2.2.2.2.2.2.2.2.2;            ",
"          2,2.2.2.2.2.2.2.2.2.2'                                                              2,2.2.2.2.2.2.2.2.2.2'            ",
"          2)2.2.2.2.2.2.2.2.2.2@                                                              2)2.2.2.2.2.2.2.2.2.2@            ",
"      2$2!2.2.2.2.2.2.2.2.2.2.2.2~2{                                                      2$2!2.2.2.2.2.2.2.2.2.2.2.2~2{        ",
"      2.2.2.2.2.2.2.2.2.2.2.2.2.2.2.                                                      2.2.2.2.2.2.2.2.2.2.2.2.2.2.2.        ",
"      2.2.2.2.2.2.2.2.2.2.2.2.2.2.2.                                                      2.2.2.2.2.2.2.2.2.2.2.2.2.2.2.        ",
"                                                                                                                                ",
"                                                                                                                                ",
"                                                                                                                                ",
"                                                                                                                                ",
"                                                                                                                                ",
"                                                                                                                                ",
"                                                                                                                                "};
