/* XPM */
static const char * Hyphen_Angle_90_24_24_6_1_xpm[] = {
"24 24 6 1",
" 	c #FFFFFF",
"V	c #CACACA",
"A	c #CCCCCC",
"G	c #000000",
"k	c #D3D3D3",
"l	c #D4D4D4",
"                        ",
"                        ",
"                        ",
"                        ",
"                        ",
"                        ",
"                        ",
"                        ",
"                        ",
"          VAA           ",
"          GGG           ",
"          GGG           ",
"          GGG           ",
"          GGG           ",
"          kll           ",
"                        ",
"                        ",
"                        ",
"                        ",
"                        ",
"                        ",
"                        ",
"                        ",
"                        "};
