/* XPM */
static const char * Hyphen_24_24_5_1_xpm[] = {
"24 24 5 1",
" 	c #FFFFFF",
"A	c #CCCCCC",
"h	c #010101",
"l	c #D4D4D4",
"G	c #000000",
"                        ",
"                        ",
"                        ",
"                        ",
"                        ",
"                        ",
"                        ",
"                        ",
"                        ",
"                        ",
"         Ahhhhl         ",
"         AGGGGl         ",
"         AGGGGl         ",
"                        ",
"                        ",
"                        ",
"                        ",
"                        ",
"                        ",
"                        ",
"                        ",
"                        ",
"                        ",
"                        "};
