/* XPM */
static const char* Hyphen_Angle_90_32_32_11_1_xpm[] = {
"32 32 11 1",
" 	c #FFFFFF",
"f	c #FDFDFD",
"V	c #CACACA",
"A	c #CCCCCC",
"g	c #EDEDED",
"G	c #000000",
"i	c #DADADA",
"Z	c #DBDBDB",
"k	c #D3D3D3",
"l	c #D4D4D4",
"m	c #F0F0F0",
"                                ",
"                                ",
"                                ",
"                                ",
"                                ",
"                                ",
"                                ",
"                                ",
"                                ",
"                                ",
"                                ",
"                                ",
"             fVAAg              ",
"              GGGi              ",
"              GGGZ              ",
"              GGGZ              ",
"              GGGZ              ",
"              GGGZ              ",
"              GGGZ              ",
"              kllm              ",
"                                ",
"                                ",
"                                ",
"                                ",
"                                ",
"                                ",
"                                ",
"                                ",
"                                ",
"                                ",
"                                ",
"                                "};
